<svg id="Layer_1" xmlns="http://www.w3.org/2000/svg" viewBox="0 0 170 170">
    <style>
        .body{fill:#52595f}.nose_and_eyes{fill:#2d3339}.brows{fill:#da8058}
    </style>
    <path class="body" d="M10.5 84.2c8.2-19.5 26.1-33.9 47.6-37.6C54.2 40.3 24.5-6.8 8.9.8-7.7 9 4 56.9 4 56.9s-1.2 14.6 6.5 27.3zM165.3 31.5c-15.4-11.2-56.4 20.2-62.8 25.2 17 11.6 28 31.3 27.3 53.3 0 1.1-.1 2.2-.2 3.3 12.8-8.1 18.9-27.9 18.9-27.9s33.5-41.8 16.8-53.9z"/>
    <path class="body" d="M130.8 109.1c-1 34.6-30 61.8-64.9 60.9S3.5 140.2 4.5 105.7s30-61.8 64.9-60.9 62.4 29.7 61.4 64.3z"/>
    <path d="M78.8 94.5l2.6-31.4c.6-2.3-.8-4.6-3.1-5.1-2.3-.6-4.6.8-5.2 3.1L62.6 91.4C44 92.1 29 107.3 29 125.9c-.1 19.2 15.6 34.8 34.9 34.9s35.2-15.4 35.2-34.6c.1-14-8.3-26.1-20.3-31.7z" fill="#fbfeff"/>
    <path class="nose_and_eyes" d="M66.5 111.6c-7.1-1.1-14.3 1.2-15.5 8.3-1.1 7 4.6 13.8 11.8 15s14.7-3.5 15.8-10.6c1.1-7-5-11.5-12.1-12.7zM39.6 76c-4.1-.8-8 1.9-8.8 5.9-.8 4 1.9 7.9 5.9 8.7 4.1.8 8-1.9 8.8-5.9.9-4-1.8-7.9-5.9-8.7zM104.4 88.4c-4.1-.8-8 1.9-8.8 5.9-.8 4 1.9 7.9 5.9 8.7 4.1.8 8-1.9 8.8-5.9.9-4.1-1.8-8-5.9-8.7z"/>
    <g>
        <path class="brows" d="M106.9 74.7c-5.4-.8-10.1.4-10.5 2.8-.4 2.4 3.7 5 9.1 5.8 5.4.8 10.1-.4 10.5-2.8.4-2.4-3.7-5-9.1-5.8zM42.1 62.3c-5.4-.8-10.1.4-10.5 2.8-.4 2.4 3.7 5 9.1 5.8 5.4.8 10.1-.4 10.5-2.8.4-2.3-3.7-4.9-9.1-5.8z"/>
    </g>
</svg>
