<svg id="Layer_1" xmlns="http://www.w3.org/2000/svg" viewBox="0 0 140 120">
    <style>
        .st1{fill:#eaaa7f}.st2{fill:#f4c6a6}
    </style>
    <ellipse cx="70.4" cy="69.9" rx="50.4" ry="50.1" fill="#ba8058"/>
    <path class="st1" d="M.6 62.5c.2-1.5.7-2.7 1.5-3.5s1.9-1.2 3.1-1.1c1.2.1 2.1.6 2.8 1.6.7 1 .9 2.2.8 3.7l-.2 2.2 1.6.2.5-1.6 1.8.2-.6 6.1-1.8-.2-.1-1.6-7.7-.7-.5 1.6-1.8-.2.1-1.6.5-5.1zm5.7 2.7l.2-2.2c.1-.6-.1-1.1-.4-1.5-.3-.4-.7-.6-1.2-.7-.5 0-.9.1-1.3.4-.4.3-.6.8-.7 1.4l-.2 2.2 3.6.4zM11.2 58.3l.1-.8-8.4-6.7 1-3.1 10.7-.7.4-.8 1.7.5-1.4 4.4-1.6-.5.1-.7h-1.3l-1.2 3.8 1.1.8.4-.6 1.6.5-1.4 4.4-1.8-.5zm-1.6-5.8l.8-2.5-3.8.2v.1l3 2.2zM15.9 28.2l-.4.8 7.4 7.1-1.5 2.5-7-2v.1l5.1 5.1-1.5 2.6-9.8-3.1-.6.7L6 41l2.7-4.4 1.6.9-.4 1.2 5.1 1.9v-.1l-5.4-5.4 1.3-2.1 7.2 2.2v-.1L14 31.7l-.8.9-1.6-.9 2.7-4.4 1.6.9zM25.3 16.4c1.2-1 2.3-1.5 3.5-1.5 1.2 0 2.2.4 3 1.3.8.9 1.1 2 .9 3.1-.2 1.2-.9 2.3-2 3.2L29 24.1l1.1 1.2 1.4-.8 1.2 1.4-4.7 4-1.2-1.4 1-1.3-5-5.9-1.4.8-1.2-1.4 1.2-1 3.9-3.3zm2.2 5.9l1.7-1.4c.5-.4.8-.9.8-1.4.1-.5-.1-.9-.4-1.3-.3-.4-.7-.6-1.3-.6-.5 0-1 .2-1.5.6l-1.7 1.4 2.4 2.7zM36.8 8.7c1.3-.7 2.5-1 3.6-.8 1.1.2 1.9.7 2.4 1.7.3.6.4 1.2.3 1.7-.1.6-.4 1.2-.8 1.8.7-.2 1.4-.1 1.9.2.5.3.9.7 1.3 1.3l.3.6.9-.3.9 1.6-2.9 1.5c-.3 0-.6-.1-.8-.4l-.6-.9-.4-.7c-.3-.5-.6-.8-1-.9-.4-.1-.8 0-1.3.2l-1.6.9 1 1.9 1.5-.5.9 1.6-5.4 2.9-.9-1.6 1.2-1-3.7-6.8-1.5.5-.9-1.6 1.3-.7 4.3-2.2zm1.1 5.5l1.5-.8c.5-.3.8-.6 1-1 .1-.4.1-.8-.1-1.2-.2-.4-.5-.6-1-.7-.4-.1-.9 0-1.4.3l-1.5.8 1.5 2.6zM44.9 6.8l-.6-1.7 5.9-2 .6 1.7-1.4.8 2.6 7.3 1.6-.2.6 1.7-5.9 2-.6-1.7 1.4-.8-2.6-7.3-1.6.2zM66.5 0l.3 1.8-1.5.5 1.5 9.7-3 .5-5.7-6.6H58l.8 5.2 1.6.1.3 1.8-6.1.9-.3-1.8 1.5-.5L54.6 4 53 3.9l-.3-1.8 1.6-.2 3-.5L63 7.9h.1l-.8-5.1-1.6-.1-.3-1.8 4.5-.7 1.6-.2zM81.1.9l-.3 3.8-2.3-.2V3l-1.9-.1-.6 7.5 1.6.4-.1 1.8-6.2-.5.1-1.8 1.6-.2.6-7.5-1.9-.1-.3 1.5-2.3-.2.3-3.8 11.7.9zM89 4.5l.7-1.7L95 4.9l-.7 1.7-1.2-.1-1 2.5.9.2 2.7-2.1-.6-.4.7-1.7 5.1 2-.7 1.7-1.2-.1-3.6 2.3 1.1 5.1.9.6-.6 1.7-5.1-2 .6-1.7.6.1-.6-3.2-1-.4-.9 2.4 1 .7-.7 1.8-5.4-2.1.6-1.7 1.6.3 2.8-7.2-1.3-.8zM97.1 18.6l1-1.5 1.5.6 4.2-6.5-1.2-1.1 1-1.5 1.3.9 7.3 4.7-2 3.1-1.9-1.2.6-1.2-2.8-1.8-1.4 2.2 4 2.6-1 1.6-4-2.6-1.6 2.4L105 21l.8-1.1 1.9 1.2-2 3-8.6-5.5zM125.1 26.3l-1.3 1.3-1.3-.9-7.1 6.9-2.1-2.1 2-8.5h-.1l-3.8 3.7.9 1.4-1.3 1.3-4.3-4.4 1.3-1.3 1.3.9L115 19l-.9-1.4 1.3-1.3 1.1 1.1 2.1 2.1-2 8.4h.1l3.7-3.6-.9-1.4 1.3-1.3 3.2 3.3 1.1 1.4zM134 40.9l-1.6.9-1.1-1.2-8.5 4.9-1.5-2.6 4-7.7-4.5 2.6.5 1.5-1.6.9-3.1-5.3 1.6-.9 1.1 1.2 6.7-3.9-.5-1.5 1.6-.9.8 1.4 1.5 2.6-4 7.7 4.5-2.6-.5-1.5 1.6-.9 2.3 4 .7 1.3zM123.7 47.3l1.7-.5.8 1.4 7.4-2.3-.2-1.6 1.7-.5.5 1.5 2.6 8.3-3.5 1.1-.7-2.2 1.3-.5-1-3.2-2.5.8 1.4 4.5-1.8.6-1.4-4.5-2.7.9 1 3.2 1.3-.3.7 2.2-3.5 1.1-3.1-10zM127.1 58.3l1.8-.2.5 1.6 7.7-.9.1-1.6 1.8-.2.2 1.6.3 3 .2 1.6-1.8.2-.5-1.6-7.5.9.4 3h1.5l.3 2.3-3.8.4-1.2-10.1zM131 76.3c.4 0 .7-.1 1-.4.3-.3.5-.9.8-1.7.4-1.5.9-2.6 1.5-3.3.6-.7 1.4-1 2.5-.9 1 .1 1.8.6 2.4 1.5.6.9.8 2.1.7 3.5-.1 1.5-.5 2.6-1.3 3.4-.7.8-1.7 1.1-2.8 1h-.1l.2-2.9c.5 0 .9-.1 1.2-.3.3-.3.5-.7.5-1.4 0-.6 0-1.1-.2-1.3-.2-.3-.5-.5-.8-.5-.4 0-.7.1-1 .4-.3.3-.5.9-.8 1.9-.4 1.4-.9 2.5-1.5 3.2-.6.7-1.4 1-2.5.9-1.1-.1-1.9-.6-2.5-1.5-.6-1-.8-2.2-.7-3.7.1-1.6.5-2.8 1.3-3.7.7-.9 1.7-1.2 2.9-1.1h.1l-.2 2.9c-.6 0-1 .1-1.3.5-.3.4-.4.9-.5 1.6 0 .7 0 1.2.2 1.5.3.1.6.3.9.4z"/>
    <g>
        <path class="st2" d="M80.4 45.2c0 5.7-4.6 6.8-10.3 6.8-5.7 0-10.3-1.1-10.3-6.8S64.4 35 70.1 35c5.7 0 10.3 4.6 10.3 10.2zM45.7 83.1c0-13.4 11-18.1 24.4-18.1s24.4 4.7 24.4 18.1-15.1 21.6-24.4 21.6c-8.9 0-24.4-8.2-24.4-21.6zM104 64.1c-4 4-8.1 1.5-12.1-2.5s-6.5-8-2.5-12 10.5-4 14.6 0c4 4 4 10.5 0 14.5zM51.5 49.6c4 4 1.5 8-2.5 12s-8.1 6.5-12.1 2.5-4-10.5 0-14.5 10.5-4 14.6 0z"/>
    </g>
</svg>
